<svg version="1.1" xmlns="http://www.w3.org/2000/svg" width="40px" height="40px" transform="rotate(0) scale(1, 1)">
<path d="M0 0 C1.90845703 0.05414063 1.90845703 0.05414063 3.85546875 0.109375 C5.31919922 0.17898438 5.31919922 0.17898438 6.8125 0.25 C6.8125 2.56 6.8125 4.87 6.8125 7.25 C7.8025 7.25 8.7925 7.25 9.8125 7.25 C9.8125 4.94 9.8125 2.63 9.8125 0.25 C11.4625 0.25 13.1125 0.25 14.8125 0.25 C14.8125 6.85 14.8125 13.45 14.8125 20.25 C13.1625 20.25 11.5125 20.25 9.8125 20.25 C9.8125 17.61 9.8125 14.97 9.8125 12.25 C8.8225 12.25 7.8325 12.25 6.8125 12.25 C6.8125 14.89 6.8125 17.53 6.8125 20.25 C3.8425 20.25 0.8725 20.25 -2.1875 20.25 C-2.1875 18.27 -2.1875 16.29 -2.1875 14.25 C-3.1775 14.25 -4.1675 14.25 -5.1875 14.25 C-5.1875 16.23 -5.1875 18.21 -5.1875 20.25 C-6.8375 20.25 -8.4875 20.25 -10.1875 20.25 C-10.26862454 17.66603321 -10.32804748 15.08462432 -10.375 12.5 C-10.40013672 11.77039062 -10.42527344 11.04078125 -10.45117188 10.2890625 C-10.49375953 7.16596758 -10.35351276 4.64061826 -9.125 1.75 C-6.15706324 -0.5477575 -3.6834824 -0.13517367 0 0 Z M-5.1875 5.25 C-5.1875 6.9 -5.1875 8.55 -5.1875 10.25 C-4.1975 10.25 -3.2075 10.25 -2.1875 10.25 C-2.1875 8.6 -2.1875 6.95 -2.1875 5.25 C-3.1775 5.25 -4.1675 5.25 -5.1875 5.25 Z " fill="#0099ff" transform="translate(17.1875,8.75)"/>
<path d="M0 0 C13.2 0 26.4 0 40 0 C40 13.2 40 26.4 40 40 C26.8 40 13.6 40 0 40 C0 26.8 0 13.6 0 0 Z M2.07568359 2.07568359 C0.39337339 5.08520902 0.61043071 7.76521492 0.6015625 11.1875 C0.59869232 11.88641357 0.59582214 12.58532715 0.59286499 13.30541992 C0.59082575 14.78142101 0.59634597 16.25744921 0.60888672 17.73339844 C0.6249442 19.99215138 0.6090353 22.24911518 0.58984375 24.5078125 C0.59182621 25.94271228 0.59566994 27.37761095 0.6015625 28.8125 C0.60494629 30.11832031 0.60833008 31.42414062 0.61181641 32.76953125 C0.77923591 35.89145329 0.77923591 35.89145329 2.07568359 37.92431641 C5.08520902 39.60662661 7.76521492 39.38956929 11.1875 39.3984375 C12.23587036 39.40274277 12.23587036 39.40274277 13.30541992 39.40713501 C14.78142101 39.40917425 16.25744921 39.40365403 17.73339844 39.39111328 C19.99215138 39.3750558 22.24911518 39.3909647 24.5078125 39.41015625 C25.94271228 39.40817379 27.37761095 39.40433006 28.8125 39.3984375 C30.77123047 39.39336182 30.77123047 39.39336182 32.76953125 39.38818359 C35.89145329 39.22076409 35.89145329 39.22076409 37.92431641 37.92431641 C39.60662661 34.91479098 39.38956929 32.23478508 39.3984375 28.8125 C39.40274277 27.76412964 39.40274277 27.76412964 39.40713501 26.69458008 C39.40917425 25.21857899 39.40365403 23.74255079 39.39111328 22.26660156 C39.3750558 20.00784862 39.3909647 17.75088482 39.41015625 15.4921875 C39.40817379 14.05728772 39.40433006 12.62238905 39.3984375 11.1875 C39.39505371 9.88167969 39.39166992 8.57585938 39.38818359 7.23046875 C39.22076409 4.10854671 39.22076409 4.10854671 37.92431641 2.07568359 C34.91479098 0.39337339 32.23478508 0.61043071 28.8125 0.6015625 C28.11358643 0.59869232 27.41467285 0.59582214 26.69458008 0.59286499 C25.21857899 0.59082575 23.74255079 0.59634597 22.26660156 0.60888672 C20.00784862 0.6249442 17.75088482 0.6090353 15.4921875 0.58984375 C14.05728772 0.59182621 12.62238905 0.59566994 11.1875 0.6015625 C9.88167969 0.60494629 8.57585938 0.60833008 7.23046875 0.61181641 C4.10854671 0.77923591 4.10854671 0.77923591 2.07568359 2.07568359 Z " fill="#0099ff" transform="translate(0,0)"/>
</svg>